<svg width="26" height="26" viewBox="0 0 26 26" fill="none" xmlns="http://www.w3.org/2000/svg">
<path d="M25 14.0533C24.7902 16.3229 23.9385 18.4859 22.5443 20.2891C21.1502 22.0922 19.2713 23.4611 17.1276 24.2354C14.9839 25.0097 12.664 25.1575 10.4393 24.6615C8.21468 24.1654 6.17732 23.0461 4.56562 21.4344C2.95393 19.8227 1.83458 17.7853 1.33853 15.5607C0.842491 13.336 0.990279 11.0161 1.7646 8.8724C2.53893 6.72868 3.90776 4.84982 5.71094 3.45567C7.51412 2.06152 9.67705 1.20974 11.9467 1C10.6179 2.79769 9.97846 5.0126 10.1447 7.24189C10.3109 9.47117 11.2718 11.5667 12.8525 13.1475C14.4332 14.7282 16.5288 15.689 18.7581 15.8553C20.9874 16.0215 23.2023 15.3821 25 14.0533Z" stroke="white" stroke-opacity="0.8" stroke-width="2" stroke-linecap="round" stroke-linejoin="round"/>
</svg>
