<svg width="55" height="55" viewBox="0 0 55 55" fill="none" xmlns="http://www.w3.org/2000/svg">
<rect width="55" height="55" rx="15" fill="#42A4DE"/>
<path d="M9.61576 21.6825L18.8561 38.6207C19.3135 39.6225 20.7774 39.5314 21.5092 38.1654L27.456 27.2375C26.4496 25.3858 24.3271 21.5003 23.8879 20.7718C23.4488 20.0433 22.6681 19.8004 22.3326 19.7701H10.7136C9.24982 19.7701 9.34131 21.1361 9.61576 21.6825Z" fill="#BEE5F7"/>
<path d="M33.2198 19.7699H44.3813C45.6256 19.7699 45.7367 21.0449 45.3877 21.6823C42.6126 26.7517 37.0074 37.0725 36.4219 38.1653C35.8363 39.2581 34.897 39.5312 34.5006 39.5312H20.7773C19.9722 39.5312 19.3135 39.1973 19.1306 38.9849C20.3016 39.7134 21.2348 38.7117 21.5092 38.1653C24.0709 33.4298 29.5146 23.511 30.5666 21.5913C31.6645 19.5878 32.6708 19.7699 33.2198 19.7699Z" fill="white"/>
</svg>
