<svg width="96" height="104" viewBox="0 0 96 104" fill="none" xmlns="http://www.w3.org/2000/svg">
<g filter="url(#filter0_dd_0_398)">
<rect width="96" height="96" rx="48" fill="url(#paint0_linear_0_398)"/>
<path d="M15.287 61.1305C14.9572 61.139 14.6289 61.0818 14.3213 60.9622C14.0138 60.8426 13.7331 60.663 13.4956 60.4339C13.2602 60.2128 13.0726 59.9459 12.9444 59.6496C12.8162 59.3532 12.75 59.0337 12.75 58.7108C12.75 58.388 12.8162 58.0685 12.9444 57.7721C13.0726 57.4758 13.2602 57.2089 13.4956 56.9878C13.731 56.7542 14.0108 56.57 14.3184 56.4461C14.6261 56.3222 14.9554 56.2611 15.287 56.2663C15.6207 56.2594 15.9524 56.3197 16.2623 56.4437C16.5722 56.5677 16.854 56.7527 17.0909 56.9878C17.3296 57.2069 17.5202 57.4732 17.6505 57.7698C17.7809 58.0664 17.8482 58.3869 17.8482 58.7108C17.8482 59.0348 17.7809 59.3553 17.6505 59.6519C17.5202 59.9485 17.3296 60.2148 17.0909 60.4339C16.852 60.6645 16.5692 60.845 16.2594 60.9646C15.9496 61.0843 15.619 61.1407 15.287 61.1305ZM43.4153 60.7324H38.8371L26.7946 41.7232C26.4928 41.252 26.2385 40.7519 26.0357 40.2303H25.9238C26.0557 41.4073 26.1056 42.592 26.0731 43.7759V60.7324H22.0174V34.8684H26.8941L38.6007 53.4298C39.0984 54.2011 39.4094 54.6739 39.5587 55.0222H39.6209C39.4801 53.8667 39.4219 52.7026 39.4467 51.5388V34.8684H43.4775L43.4153 60.7324ZM63.1212 60.7324H48.9638V34.8684H62.5614V38.5135H53.1438V45.841H61.8523V49.4612H53.1438V57.1122H63.0963L63.1212 60.7324ZM83.2501 38.5135H75.9972V60.7324H71.8047V38.5135H64.5768V34.8684H83.2377L83.2501 38.5135Z" fill="white"/>
</g>
<defs>
<filter id="filter0_dd_0_398" x="-8" y="-8" width="112" height="112" filterUnits="userSpaceOnUse" color-interpolation-filters="sRGB">
<feFlood flood-opacity="0" result="BackgroundImageFix"/>
<feColorMatrix in="SourceAlpha" type="matrix" values="0 0 0 0 0 0 0 0 0 0 0 0 0 0 0 0 0 0 127 0" result="hardAlpha"/>
<feOffset/>
<feGaussianBlur stdDeviation="4"/>
<feComposite in2="hardAlpha" operator="out"/>
<feColorMatrix type="matrix" values="0 0 0 0 0.715625 0 0 0 0 0.728516 0 0 0 0 0.75 0 0 0 0.04 0"/>
<feBlend mode="normal" in2="BackgroundImageFix" result="effect1_dropShadow_0_398"/>
<feColorMatrix in="SourceAlpha" type="matrix" values="0 0 0 0 0 0 0 0 0 0 0 0 0 0 0 0 0 0 127 0" result="hardAlpha"/>
<feOffset dy="2"/>
<feGaussianBlur stdDeviation="1.5"/>
<feComposite in2="hardAlpha" operator="out"/>
<feColorMatrix type="matrix" values="0 0 0 0 0 0 0 0 0 0 0 0 0 0 0 0 0 0 0.02 0"/>
<feBlend mode="normal" in2="effect1_dropShadow_0_398" result="effect2_dropShadow_0_398"/>
<feBlend mode="normal" in="SourceGraphic" in2="effect2_dropShadow_0_398" result="shape"/>
</filter>
<linearGradient id="paint0_linear_0_398" x1="12.1997" y1="3" x2="72.6997" y2="96" gradientUnits="userSpaceOnUse">
<stop stop-color="#6B3FA0"/>
<stop offset="1" stop-color="#552D85"/>
</linearGradient>
</defs>
</svg>
