<svg width="112" height="104" viewBox="0 0 112 104" fill="none" xmlns="http://www.w3.org/2000/svg">
<g filter="url(#filter0_dd_0_410)">
<rect x="8" width="96" height="96" rx="48" fill="url(#paint0_linear_0_410)"/>
<path fill-rule="evenodd" clip-rule="evenodd" d="M20.9664 41.9198C20.8053 41.9198 20.7656 41.8389 20.8458 41.7189L21.6897 40.6336C21.7693 40.5129 21.9708 40.4327 22.1313 40.4327H36.4759C36.637 40.4327 36.6768 40.5534 36.5966 40.674L35.9137 41.7189C35.8335 41.8389 35.6326 41.9595 35.5119 41.9595L20.9664 41.9198ZM14.899 45.6158C14.7385 45.6158 14.6981 45.5362 14.7783 45.4149L15.6223 44.3303C15.7025 44.2096 15.9034 44.1294 16.0645 44.1294H34.3862C34.5467 44.1294 34.6275 44.2501 34.5871 44.3707L34.2656 45.3347C34.2258 45.4958 34.0647 45.576 33.9042 45.576L14.899 45.6158ZM24.622 49.3125C24.4616 49.3125 24.4218 49.1918 24.502 49.0712L25.0642 48.0668C25.1451 47.9461 25.3056 47.8261 25.4667 47.8261H33.5018C33.6629 47.8261 33.7431 47.9461 33.7431 48.1072L33.6636 49.0712C33.6636 49.2323 33.5025 49.3529 33.3818 49.3529L24.622 49.3125ZM66.3293 41.1965C63.7974 41.8395 62.0698 42.3215 59.579 42.9639C58.9757 43.125 58.9359 43.1648 58.4135 42.5622C57.8108 41.8793 57.3686 41.4371 56.5254 41.0354C53.9935 39.7903 51.5425 40.1516 49.2526 41.6387C46.5205 43.4061 45.1144 46.0176 45.1541 49.2721C45.1939 52.4868 47.4042 55.1387 50.5785 55.5809C53.3106 55.9422 55.6012 54.9776 57.4091 52.929C57.7704 52.4868 58.0919 52.0048 58.4937 51.442H50.739C49.8957 51.442 49.6948 50.9195 49.9759 50.2367C50.4983 48.991 51.4623 46.902 52.0245 45.8571C52.1458 45.6158 52.4269 45.214 53.0295 45.214H67.6546C67.575 46.2993 67.575 47.3839 67.4139 48.4692C66.9717 51.3617 65.8871 54.0136 64.119 56.3439C61.2258 60.1613 57.4495 62.5314 52.6675 63.1745C48.7302 63.6969 45.0739 62.9332 41.8599 60.5226C38.8864 58.2725 37.1992 55.2991 36.757 51.6031C36.2346 47.2235 37.5201 43.2855 40.1719 39.8301C43.0247 36.0936 46.8016 33.7228 51.4225 32.8789C55.1994 32.196 58.8152 32.6382 62.0697 34.8479C64.1992 36.254 65.726 38.1826 66.7304 40.5129C66.9717 40.8749 66.8113 41.0758 66.3287 41.1958L66.3293 41.1965Z" fill="white"/>
<path d="M79.6287 63.4159C75.9724 63.335 72.6371 62.2908 69.8247 59.8796C67.454 57.8311 65.9676 55.219 65.4856 52.1249C64.7623 47.5849 66.0074 43.5667 68.7401 39.9913C71.6731 36.1335 75.2087 34.1247 79.9907 33.2807C84.0885 32.5581 87.9463 32.9598 91.4415 35.33C94.6157 37.4998 96.5841 40.4328 97.1065 44.29C97.7894 49.7144 96.2228 54.1344 92.4856 57.9113C89.8338 60.6029 86.5793 62.2908 82.8428 63.0539C81.7582 63.2548 80.6729 63.2952 79.6287 63.4159ZM89.1913 47.1831C89.1516 46.6607 89.1516 46.259 89.0707 45.8572C88.3481 41.8794 84.6911 39.6293 80.8744 40.5137C77.1373 41.357 74.7267 43.7278 73.843 47.5047C73.1197 50.6385 74.6465 53.8128 77.539 55.0983C79.7494 56.0629 81.959 55.9423 84.0885 54.8577C87.2628 53.2102 88.9905 50.6385 89.1913 47.1831Z" fill="white"/>
</g>
<defs>
<filter id="filter0_dd_0_410" x="0" y="-8" width="112" height="112" filterUnits="userSpaceOnUse" color-interpolation-filters="sRGB">
<feFlood flood-opacity="0" result="BackgroundImageFix"/>
<feColorMatrix in="SourceAlpha" type="matrix" values="0 0 0 0 0 0 0 0 0 0 0 0 0 0 0 0 0 0 127 0" result="hardAlpha"/>
<feOffset/>
<feGaussianBlur stdDeviation="4"/>
<feComposite in2="hardAlpha" operator="out"/>
<feColorMatrix type="matrix" values="0 0 0 0 0.715625 0 0 0 0 0.728516 0 0 0 0 0.75 0 0 0 0.04 0"/>
<feBlend mode="normal" in2="BackgroundImageFix" result="effect1_dropShadow_0_410"/>
<feColorMatrix in="SourceAlpha" type="matrix" values="0 0 0 0 0 0 0 0 0 0 0 0 0 0 0 0 0 0 127 0" result="hardAlpha"/>
<feOffset dy="2"/>
<feGaussianBlur stdDeviation="1.5"/>
<feComposite in2="hardAlpha" operator="out"/>
<feColorMatrix type="matrix" values="0 0 0 0 0 0 0 0 0 0 0 0 0 0 0 0 0 0 0.02 0"/>
<feBlend mode="normal" in2="effect1_dropShadow_0_410" result="effect2_dropShadow_0_410"/>
<feBlend mode="normal" in="SourceGraphic" in2="effect2_dropShadow_0_410" result="shape"/>
</filter>
<linearGradient id="paint0_linear_0_410" x1="18.6001" y1="4" x2="83.1001" y2="96" gradientUnits="userSpaceOnUse">
<stop stop-color="#00ACD7"/>
<stop offset="1" stop-color="#00A8D3"/>
</linearGradient>
</defs>
</svg>
