<svg width="112" height="104" viewBox="0 0 112 104" fill="none" xmlns="http://www.w3.org/2000/svg">
<g filter="url(#filter0_dd_0_394)">
<rect x="8" width="96" height="96" rx="48" fill="url(#paint0_linear_0_394)"/>
<path d="M86.4819 26.9588L58.9213 10.9556C57.1831 9.96563 54.92 9.96563 53.1681 10.9556L25.3131 26.9588C23.5194 27.9906 22.25 29.93 22.25 32.0044V63.9681C22.25 66.0425 23.5525 67.9825 25.3463 69.02L32.7056 73.2C36.2231 74.9325 37.4663 74.9325 39.0669 74.9325C44.275 74.9325 47.25 71.7831 47.25 66.29V34.7338C47.25 34.2881 47.0181 33.625 46.5806 33.625H43.0662C42.6212 33.625 41.625 34.2881 41.625 34.7331V66.2894C41.625 68.7244 39.4225 71.1475 35.3062 69.0894L27.7019 64.7063C27.4369 64.5625 27.25 64.2731 27.25 63.9681V32.0044C27.25 31.7031 27.5969 31.4006 27.8638 31.2463L55.6287 15.2706C55.8881 15.1238 56.2694 15.1238 56.5281 15.2706L83.9544 31.2425C84.2169 31.4006 84.1244 31.6938 84.1244 32.0044V63.9681C84.1244 64.2731 84.2387 64.57 83.9794 64.7169L56.4256 80.7019C56.1894 80.8438 55.8962 80.8438 55.6375 80.7019L48.5706 76.4838C48.3575 76.36 48.1044 76.3156 47.9 76.43C45.9338 77.5444 45.5712 77.6925 43.7269 78.3319C43.2731 78.49 42.6037 78.7644 43.9831 79.5375L53.2319 85.0088C54.1149 85.5188 55.1166 85.7873 56.1363 85.7875C57.1625 85.7875 58.1675 85.5213 59.0531 85.0088L86.4812 69.02C88.275 67.975 89.125 66.0425 89.125 63.9681V32.0044C89.125 29.93 88.275 27.9956 86.4819 26.9588V26.9588ZM64.6938 58.9031C57.365 58.9031 55.7506 56.8813 55.2125 53.2369C55.15 52.8444 54.8169 52.375 54.4175 52.375H50.8356C50.3925 52.375 50.0363 52.9125 50.0363 53.3538C50.0363 58.02 52.5731 63.6738 64.6944 63.6738C73.4688 63.6738 78.4994 60.2644 78.4994 54.2306C78.4994 48.2481 74.4575 46.6781 65.9481 45.5519C57.3469 44.415 56.4731 43.8406 56.4731 41.8256C56.4731 40.1644 57.2131 37.9488 63.5819 37.9488C69.2725 37.9488 71.37 39.17 72.2331 43.0056C72.3069 43.3663 72.6362 43.625 73.0081 43.625H76.6044C76.8256 43.625 77.0369 43.5356 77.1919 43.3775C77.3419 43.2075 77.4212 42.9944 77.4012 42.7656C76.8444 36.1606 72.4562 33.0825 63.5812 33.0825C55.6869 33.0825 50.9775 36.4163 50.9775 42.0044C50.9775 48.0656 55.6631 49.7406 63.2412 50.49C72.3069 51.3788 73.0119 52.7038 73.0119 54.4869C73.0119 57.5838 70.5256 58.9031 64.6938 58.9031Z" fill="white"/>
</g>
<defs>
<filter id="filter0_dd_0_394" x="0" y="-8" width="112" height="112" filterUnits="userSpaceOnUse" color-interpolation-filters="sRGB">
<feFlood flood-opacity="0" result="BackgroundImageFix"/>
<feColorMatrix in="SourceAlpha" type="matrix" values="0 0 0 0 0 0 0 0 0 0 0 0 0 0 0 0 0 0 127 0" result="hardAlpha"/>
<feOffset/>
<feGaussianBlur stdDeviation="4"/>
<feComposite in2="hardAlpha" operator="out"/>
<feColorMatrix type="matrix" values="0 0 0 0 0.715625 0 0 0 0 0.728516 0 0 0 0 0.75 0 0 0 0.04 0"/>
<feBlend mode="normal" in2="BackgroundImageFix" result="effect1_dropShadow_0_394"/>
<feColorMatrix in="SourceAlpha" type="matrix" values="0 0 0 0 0 0 0 0 0 0 0 0 0 0 0 0 0 0 127 0" result="hardAlpha"/>
<feOffset dy="2"/>
<feGaussianBlur stdDeviation="1.5"/>
<feComposite in2="hardAlpha" operator="out"/>
<feColorMatrix type="matrix" values="0 0 0 0 0 0 0 0 0 0 0 0 0 0 0 0 0 0 0.02 0"/>
<feBlend mode="normal" in2="effect1_dropShadow_0_394" result="effect2_dropShadow_0_394"/>
<feBlend mode="normal" in="SourceGraphic" in2="effect2_dropShadow_0_394" result="shape"/>
</filter>
<linearGradient id="paint0_linear_0_394" x1="8.3999" y1="4" x2="96.3999" y2="102.5" gradientUnits="userSpaceOnUse">
<stop stop-color="#83CD29"/>
<stop offset="1" stop-color="#74BE1A"/>
</linearGradient>
</defs>
</svg>
